<svg width="25" height="25" viewBox="0 0 25 25" fill="none" xmlns="http://www.w3.org/2000/svg">
<path id="Vector" fill-rule="evenodd" clip-rule="evenodd" d="M12.4999 0C19.4035 0 25 5.59636 25 12.4999C25 19.4036 19.4035 25 12.4999 25C5.59647 25.0002 0 19.4036 0 12.4999C0 5.59636 5.59647 0 12.4999 0ZM16.6256 7.37026C16.9029 7.09295 17.3524 7.09295 17.6299 7.37026C17.9072 7.64756 17.9072 8.09719 17.6299 8.3745L13.5039 12.4999L17.6297 16.6255C17.907 16.9028 17.907 17.3524 17.6297 17.6299C17.3524 17.907 16.9029 17.907 16.6254 17.6299L12.4999 13.5043L8.37436 17.6299C8.09727 17.907 7.64744 17.907 7.37014 17.6299C7.09284 17.3526 7.09284 16.903 7.37014 16.6255L11.4957 12.4999L7.37014 8.3745C7.09284 8.09719 7.09284 7.64756 7.37014 7.37026C7.64744 7.09295 8.09706 7.09295 8.37436 7.37026L12.4999 11.4959L16.6256 7.37026Z" fill="#E80000"/>
</svg>
