<svg width="15" height="15" viewBox="0 0 15 15" fill="none" xmlns="http://www.w3.org/2000/svg">
<g id="Group 97">
<path id="Vector" d="M13.75 1.40659H11.7188V0.469072C11.7188 0.34475 11.6695 0.225486 11.5817 0.137518C11.4938 0.0495495 11.3746 8.29932e-05 11.2503 1.11304e-07C11.126 -8.27706e-05 11.0067 0.0492248 10.9188 0.137076C10.8308 0.224927 10.7813 0.344125 10.7812 0.468447V1.40659H7.96875V0.469072C7.96879 0.407514 7.95671 0.34655 7.93319 0.289662C7.90967 0.232774 7.87518 0.181075 7.83168 0.137518C7.78818 0.0939603 7.73653 0.0593972 7.67967 0.0358019C7.62282 0.0122066 7.56187 4.11433e-05 7.50031 1.04319e-07C7.37599 -8.27776e-05 7.25673 0.0492248 7.16876 0.137076C7.0808 0.224927 7.03133 0.344125 7.03125 0.468447V1.40659H4.21875V0.469072C4.21879 0.407514 4.20671 0.34655 4.18319 0.289662C4.15967 0.232774 4.12518 0.181075 4.08168 0.137518C4.03818 0.0939603 3.98653 0.0593972 3.92967 0.0358019C3.87282 0.0122066 3.81187 4.11433e-05 3.75031 1.04319e-07C3.62599 -8.27776e-05 3.50673 0.0492248 3.41876 0.137076C3.3308 0.224927 3.28133 0.344125 3.28125 0.468447V1.40659H1.25C0.918588 1.40659 0.60074 1.5382 0.366337 1.77249C0.131935 2.00679 0.000165706 2.32457 0 2.65599V13.75C0 14.0815 0.131696 14.3994 0.366117 14.6339C0.600537 14.8683 0.918479 15 1.25 15H13.75C14.0815 15 14.3995 14.8683 14.6339 14.6339C14.8683 14.3994 15 14.0815 15 13.75V2.65599C14.9998 2.32457 14.8681 2.00679 14.6337 1.77249C14.3993 1.5382 14.0814 1.40659 13.75 1.40659ZM14.0625 13.7506C14.0625 13.8334 14.0297 13.9128 13.9712 13.9714C13.9127 14.0299 13.8334 14.0629 13.7506 14.0631H1.25C1.16712 14.0631 1.08763 14.0302 1.02903 13.9716C0.970424 13.913 0.9375 13.8335 0.9375 13.7506V2.65662C0.937666 2.57384 0.970663 2.49452 1.02925 2.43605C1.08784 2.37758 1.16723 2.34474 1.25 2.34474H3.28125V3.28226C3.28117 3.40658 3.33047 3.52584 3.41832 3.61381C3.50617 3.70178 3.62537 3.75125 3.74969 3.75133C3.87401 3.75141 3.99327 3.7021 4.08124 3.61425C4.1692 3.5264 4.21867 3.4072 4.21875 3.28288V2.34474H7.03125V3.28226C7.03117 3.40658 7.08047 3.52584 7.16832 3.61381C7.25617 3.70178 7.37537 3.75125 7.49969 3.75133C7.62401 3.75141 7.74327 3.7021 7.83124 3.61425C7.9192 3.5264 7.96867 3.4072 7.96875 3.28288V2.34474H10.7812V3.28226C10.7812 3.40658 10.8305 3.52584 10.9183 3.61381C11.0062 3.70178 11.1254 3.75125 11.2497 3.75133C11.374 3.75141 11.4933 3.7021 11.5812 3.61425C11.6692 3.5264 11.7187 3.4072 11.7188 3.28288V2.34474H13.75C13.8327 2.3449 13.9119 2.37781 13.9703 2.43627C14.0288 2.49472 14.0617 2.57395 14.0619 2.65662L14.0625 13.7506Z" fill="#E8B100"/>
<path id="Vector_2" d="M3.28125 5.62537H5.15625V7.03165H3.28125V5.62537ZM3.28125 7.96916H5.15625V9.37544H3.28125V7.96916ZM3.28125 10.313H5.15625V11.7192H3.28125V10.313ZM6.5625 10.313H8.4375V11.7192H6.5625V10.313ZM6.5625 7.96916H8.4375V9.37544H6.5625V7.96916ZM6.5625 5.62537H8.4375V7.03165H6.5625V5.62537ZM9.84375 10.313H11.7188V11.7192H9.84375V10.313ZM9.84375 7.96916H11.7188V9.37544H9.84375V7.96916ZM9.84375 5.62537H11.7188V7.03165H9.84375V5.62537Z" fill="#E8B100"/>
</g>
</svg>
