<svg width="25" height="25" viewBox="0 0 25 25" fill="none" xmlns="http://www.w3.org/2000/svg">
<rect width="25" height="25" fill="#F5F5F5"/>
<g id="home" clip-path="url(#clip0_0_1)">
<rect width="430" height="1394" transform="translate(-22 -233)" fill="white"/>
<path id="Rectangle 124" d="M-22 -37C-22 -53.5685 -8.56854 -67 8 -67H378C394.569 -67 408 -53.5685 408 -37V1161H-22V-37Z" fill="white"/>
<g id="Group 122">
<rect id="Rectangle 126" x="-22" y="-68" width="430" height="99" rx="20" fill="white"/>
<g id="Group 123">
<path id="Vector" fill-rule="evenodd" clip-rule="evenodd" d="M25 2.51261V4.65698C25 4.91943 24.7525 5.13509 24.4498 5.13509H15.9228C15.342 6.33952 14.1046 7.17163 12.6708 7.17163C11.2391 7.17163 10.0016 6.33952 9.42076 5.13509H0.550192C0.24953 5.13509 0 4.91943 0 4.65698V2.51261C0 2.25016 0.247484 2.03451 0.550192 2.03451H9.42076C10.0016 0.830078 11.2391 0 12.6708 0C14.1025 0 15.3399 0.832113 15.9208 2.03451H24.4478C24.7525 2.03451 25 2.25016 25 2.51261ZM10.1387 22.9655C9.5578 24.1699 8.32038 25 6.88661 25C5.45488 25 4.21746 24.1699 3.63659 22.9655H0.550192C0.247484 22.9655 0 22.7498 0 22.4874V20.343C0 20.0806 0.247484 19.8649 0.550192 19.8649H3.63659C4.21746 18.6605 5.45488 17.8284 6.88661 17.8284C8.31833 17.8284 9.55576 18.6605 10.1366 19.8649H24.4478C24.7505 19.8649 24.998 20.0806 24.998 20.343V22.4874C24.998 22.7498 24.7484 22.9655 24.4478 22.9655H10.1387ZM21.2959 14.1866C20.715 15.391 19.4776 16.2231 18.0459 16.2231C16.6142 16.2231 15.3767 15.391 14.7938 14.1866H0.550192C0.24953 14.1866 0 13.9709 0 13.7085V11.5662C0 11.3037 0.247484 11.0881 0.550192 11.0881H14.7938C15.3747 9.88363 16.6121 9.05355 18.0439 9.05355C19.4756 9.05355 20.713 9.88566 21.2939 11.0881H24.4478C24.7505 11.0881 24.998 11.3037 24.998 11.5662V13.7085C24.998 13.9709 24.7505 14.1866 24.4478 14.1866H21.2959Z" fill="#4C4C6D"/>
</g>
</g>
</g>
<defs>
<clipPath id="clip0_0_1">
<rect width="430" height="1394" fill="white" transform="translate(-22 -233)"/>
</clipPath>
</defs>
</svg>
