<svg width="15" height="15" viewBox="0 0 15 15" fill="none" xmlns="http://www.w3.org/2000/svg">
<path id="Vector" d="M6.444 0.337529C6.74351 0.119063 7.11601 0 7.5 0C7.88399 0 8.25649 0.119063 8.556 0.337529L14.3685 4.57746C14.5656 4.72122 14.7247 4.90338 14.834 5.11051C14.9433 5.31763 15 5.54443 15 5.77416V13.4658C15 13.8727 14.8222 14.2629 14.5057 14.5506C14.1893 14.8384 13.7601 15 13.3125 15H11.0625C10.6149 15 10.1857 14.8384 9.86926 14.5506C9.55279 14.2629 9.375 13.8727 9.375 13.4658V9.37449C9.375 9.23885 9.31574 9.10878 9.21025 9.01287C9.10476 8.91696 8.96168 8.86308 8.8125 8.86308H6.1875C6.03832 8.86308 5.89524 8.91696 5.78975 9.01287C5.68426 9.10878 5.625 9.23885 5.625 9.37449V13.4658C5.625 13.8727 5.44721 14.2629 5.13074 14.5506C4.81427 14.8384 4.38505 15 3.9375 15H1.6875C1.24008 15 0.810969 14.8385 0.494522 14.5509C0.178076 14.2633 0.000198855 13.8732 0 13.4665V5.77484C0 5.3098 0.2325 4.86931 0.6315 4.57814L6.444 0.338211V0.337529ZM7.85175 1.13533C7.75195 1.06262 7.62789 1.023 7.5 1.023C7.37211 1.023 7.24805 1.06262 7.14825 1.13533L1.33575 5.37526C1.27001 5.42316 1.21694 5.48387 1.18046 5.55291C1.14398 5.62195 1.12503 5.69757 1.125 5.77416V13.4658C1.125 13.7487 1.377 13.9772 1.6875 13.9772H3.9375C4.08668 13.9772 4.22976 13.9233 4.33525 13.8274C4.44074 13.7315 4.5 13.6014 4.5 13.4658V9.37449C4.5 8.96758 4.67779 8.57735 4.99426 8.28962C5.31072 8.0019 5.73995 7.84026 6.1875 7.84026H8.8125C9.26005 7.84026 9.68927 8.0019 10.0057 8.28962C10.3222 8.57735 10.5 8.96758 10.5 9.37449V13.4658C10.5 13.7487 10.752 13.9772 11.0625 13.9772H13.3125C13.4617 13.9772 13.6048 13.9233 13.7102 13.8274C13.8157 13.7315 13.875 13.6014 13.875 13.4658V5.77416C13.8751 5.69762 13.8562 5.62204 13.8199 5.55301C13.7835 5.48397 13.7306 5.42323 13.665 5.37526L7.8525 1.13533H7.85175Z" fill="#E8B100"/>
</svg>
