<svg width="24" height="29" viewBox="0 0 24 29" fill="none" xmlns="http://www.w3.org/2000/svg">
<path id="Vector" d="M23.1411 9.11181L15.3107 0.475269C15.1761 0.326155 15.0118 0.206859 14.8284 0.12505C14.6449 0.0432423 14.4464 0.000733826 14.2455 0.000259062H4.16954C3.69129 -0.00544551 3.2166 0.0831123 2.77258 0.260876C2.32856 0.438639 1.9239 0.702126 1.58172 1.03629C1.23954 1.37045 0.96653 1.76875 0.778288 2.20843C0.590046 2.64811 0.490256 3.12057 0.484619 3.59882V25.1902C0.490256 25.6684 0.590046 26.1409 0.778288 26.5806C0.96653 27.0202 1.23954 27.4185 1.58172 27.7527C1.9239 28.0869 2.32856 28.3503 2.77258 28.5281C3.2166 28.7059 3.69129 28.7944 4.16954 28.7887H19.8305C20.3087 28.7944 20.7834 28.7059 21.2274 28.5281C21.6714 28.3503 22.0761 28.0869 22.4183 27.7527C22.7605 27.4185 23.0335 27.0202 23.2217 26.5806C23.41 26.1409 23.5098 25.6684 23.5154 25.1902V10.0762C23.5145 9.71948 23.3811 9.3758 23.1411 9.11181ZM20.1327 10.0762H14.4614C14.1647 10.047 13.8913 9.90239 13.7001 9.67354C13.509 9.44469 13.4153 9.14992 13.4394 8.85271V2.87911H13.5978L20.1327 10.0762ZM19.8305 25.9099H4.16954C4.06932 25.9157 3.96893 25.9017 3.87414 25.8687C3.77934 25.8356 3.69199 25.7842 3.61711 25.7173C3.54222 25.6505 3.48127 25.5695 3.43775 25.479C3.39422 25.3886 3.36898 25.2904 3.36347 25.1902V3.59882C3.36898 3.49858 3.39422 3.40041 3.43775 3.30995C3.48127 3.21948 3.54222 3.1385 3.61711 3.07164C3.69199 3.00478 3.77934 2.95335 3.87414 2.92031C3.96893 2.88728 4.06932 2.87327 4.16954 2.87911H10.5606V8.85271C10.5373 9.91302 10.9345 10.9395 11.6653 11.7081C12.3961 12.4766 13.4013 12.9249 14.4614 12.9551H20.6365V25.1902C20.631 25.2904 20.6058 25.3886 20.5623 25.479C20.5187 25.5695 20.4578 25.6505 20.3829 25.7173C20.308 25.7842 20.2207 25.8356 20.1259 25.8687C20.0311 25.9017 19.9307 25.9157 19.8305 25.9099Z" fill="#E8B100"/>
</svg>
