<svg width="25" height="25" viewBox="0 0 25 25" fill="none" xmlns="http://www.w3.org/2000/svg">
<g id="plus-round-icon 1" clip-path="url(#clip0_48_2422)">
<g id="Group">
<path id="Vector" fill-rule="evenodd" clip-rule="evenodd" d="M21.3393 3.66132C26.2207 8.54295 26.2207 16.4576 21.3393 21.3393C16.4576 26.2207 8.54295 26.2207 3.66132 21.3393C-1.22011 16.4576 -1.22011 8.54295 3.66132 3.66132C8.54295 -1.22011 16.4576 -1.22011 21.3393 3.66132ZM19.0447 11.79C19.437 11.79 19.7548 12.108 19.7548 12.5001C19.7548 12.8923 19.4368 13.2101 19.0447 13.2101H13.2103V19.0447C13.2103 19.437 12.8923 19.7548 12.5003 19.7548C12.1082 19.7548 11.7905 19.4368 11.7905 19.0447V13.2103H5.95565C5.56339 13.2103 5.24539 12.8923 5.24539 12.5003C5.24539 12.1082 5.56339 11.7902 5.95565 11.7902H11.7902V5.95544C11.7902 5.56339 12.1082 5.24539 12.5001 5.24539C12.8923 5.24539 13.2101 5.56339 13.2101 5.95544V11.79H19.0447Z" fill="#E8B100"/>
</g>
</g>
<defs>
<clipPath id="clip0_48_2422">
<rect width="25" height="25" fill="white"/>
</clipPath>
</defs>
</svg>
