<svg width="28" height="27" viewBox="0 0 28 27" fill="none" xmlns="http://www.w3.org/2000/svg">
<g id="Group">
<path id="Vector" d="M1.48462 22.7695C1.48462 21.1119 2.1431 19.5222 3.3152 18.3501C4.4873 17.178 6.07702 16.5195 7.73462 16.5195H20.2346C21.8922 16.5195 23.4819 17.178 24.654 18.3501C25.8261 19.5222 26.4846 21.1119 26.4846 22.7695C26.4846 23.5983 26.1554 24.3932 25.5693 24.9792C24.9833 25.5653 24.1884 25.8945 23.3596 25.8945H4.60962C3.78082 25.8945 2.98596 25.5653 2.39991 24.9792C1.81386 24.3932 1.48462 23.5983 1.48462 22.7695Z" stroke="#4C4C6D" stroke-width="1.5" stroke-linejoin="round"/>
<path id="Vector_2" d="M13.9846 10.2695C16.5735 10.2695 18.6721 8.17087 18.6721 5.58203C18.6721 2.9932 16.5735 0.894531 13.9846 0.894531C11.3958 0.894531 9.29712 2.9932 9.29712 5.58203C9.29712 8.17087 11.3958 10.2695 13.9846 10.2695Z" stroke="#4C4C6D" stroke-width="1.5"/>
</g>
</svg>
