<svg width="26" height="26" viewBox="0 0 26 26" fill="none" xmlns="http://www.w3.org/2000/svg">
<path id="Vector" d="M13.3167 0.902316H13.3309C16.7357 1.01923 19.7914 2.39455 21.9794 4.52345C24.2206 6.70389 25.5649 9.67616 25.4809 12.9216V12.9377C25.4277 14.8782 24.8691 16.689 23.9247 18.2655C22.9569 19.8807 21.5863 21.2483 19.9452 22.254C18.1278 23.3672 16.1556 24.0599 14.1649 24.2488C12.3484 24.4217 10.5139 24.1768 8.76244 23.452L1.61197 25.8945L3.6618 20.027C2.7819 19.1393 2.09537 18.1724 1.58951 17.1617C0.677876 15.3387 0.349747 13.376 0.533832 11.4626C0.715474 9.56368 1.40298 7.71848 2.52311 6.11376C3.38445 4.87919 4.50116 3.78814 5.8376 2.9276C6.9177 2.23164 8.12035 1.69304 9.40259 1.34672C10.6316 1.01536 11.9485 0.856324 13.3167 0.902316ZM8.54369 16.3732C10.1067 15.8811 11.1243 14.8521 11.3772 13.0612C11.4461 12.5742 11.3499 12.9421 11.0589 13.1892C10.1082 13.996 8.23949 13.7107 7.98021 11.8671C7.45823 8.60284 11.0545 8.0382 12.1189 9.84073C12.3665 10.2596 12.5306 10.7484 12.5896 11.2859C12.846 13.622 11.7908 15.7022 9.93775 16.6796C9.59497 16.8608 9.23413 17.0016 8.84496 17.1057C8.65014 17.1506 8.50853 17.0304 8.44359 16.8265C8.38842 16.6536 8.36937 16.4618 8.54369 16.3732ZM13.9578 16.3732C15.5213 15.8811 16.5384 14.8521 16.7913 13.0612C16.8602 12.5742 16.764 12.9421 16.473 13.1892C15.5223 13.996 13.6536 13.7107 13.3943 11.8671C12.8728 8.60284 16.4686 8.0382 17.5331 9.84073C17.7806 10.2596 17.9447 10.7484 18.0038 11.2859C18.2601 13.622 17.2054 15.7022 15.3519 16.6796C15.0091 16.8608 14.6478 17.0016 14.2591 17.1057C14.0643 17.1506 13.9231 17.0304 13.8577 16.8265C13.8021 16.6536 13.7835 16.4618 13.9578 16.3732ZM13.2815 2.93813H13.2679C12.073 2.89824 10.9119 3.03953 9.81763 3.33488C8.69311 3.63909 7.65013 4.10399 6.72433 4.70021C5.58858 5.43165 4.64814 6.3476 3.93036 7.37548C3.02214 8.67654 2.46598 10.161 2.32096 11.6776C2.17643 13.1798 2.43522 14.7219 3.15154 16.1554C3.64373 17.1395 4.35126 18.0765 5.29023 18.921L5.81417 19.392L4.6496 22.725L8.83325 21.2959L9.12182 21.4245C10.6961 22.1282 12.3621 22.3704 14.0169 22.2124C15.7615 22.0468 17.494 21.4378 19.0936 20.457C20.4862 19.6042 21.6391 18.4611 22.4398 17.1235C23.1982 15.8584 23.6459 14.4133 23.6864 12.874L23.6869 12.8579C23.7514 10.263 22.6483 7.86033 20.8109 6.07276C18.9183 4.23088 16.2586 3.0412 13.2815 2.93813Z" fill="#4C4C6D"/>
</svg>
