<svg width="20" height="20" viewBox="0 0 20 20" fill="none" xmlns="http://www.w3.org/2000/svg">
<g id="Group">
<path id="Vector" d="M13.8232 19.2415C12.6449 19.7298 11.3525 20 10 20C7.23958 20 4.73796 18.8802 2.92969 17.0703C2.00846 16.1491 1.26628 15.0472 0.758463 13.8232C0.270182 12.6449 0 11.3525 0 10C0 7.23958 1.11979 4.73796 2.92969 2.92969C3.85091 2.00846 4.9528 1.26628 6.17676 0.758463C7.35514 0.270182 8.64746 0 10 0C11.3525 0 12.6449 0.270182 13.8232 0.758463C15.0488 1.26628 16.1491 2.00846 17.0703 2.92969C17.9915 3.85091 18.7354 4.95117 19.2415 6.17676C19.7298 7.35514 20 8.64746 20 10C20 11.3525 19.7298 12.6449 19.2415 13.8232C18.7354 15.0488 17.9915 16.1491 17.0703 17.0703C16.1507 17.9915 15.0488 18.7354 13.8232 19.2415ZM12.9834 8.97135C13.5596 8.97624 14.0218 9.44661 14.0169 10.0228C14.012 10.599 13.5417 11.0612 12.9655 11.0563L9.44499 11.0352L10.7178 12.3291C11.1214 12.7393 11.1165 13.4001 10.7064 13.8021C10.2962 14.2057 9.63704 14.2008 9.2334 13.7891L6.19466 10.7015C5.7959 10.2946 5.7959 9.64518 6.19466 9.23991L9.17318 6.21094C9.57682 5.80078 10.236 5.7959 10.6462 6.19792C11.0563 6.60156 11.0612 7.26074 10.6592 7.6709L9.40104 8.94857L12.9834 8.97135ZM13.0241 17.3063C13.9893 16.9059 14.86 16.3184 15.5892 15.5892C16.3184 14.86 16.9059 13.9893 17.3063 13.0241C17.6921 12.0947 17.9036 11.0726 17.9036 10C17.9036 8.92741 17.6904 7.9069 17.3063 6.97591C16.9059 6.01074 16.3184 5.13997 15.5892 4.41081C14.86 3.68164 13.9893 3.09407 13.0241 2.69368C12.0931 2.30794 11.0726 2.09635 10 2.09635C8.92741 2.09635 7.9069 2.30957 6.97591 2.69368C6.01074 3.09407 5.13997 3.68164 4.41081 4.41081C3.68164 5.13997 3.09407 6.00911 2.69368 6.97591C2.30794 7.90527 2.09635 8.92741 2.09635 10C2.09635 11.0726 2.30957 12.0931 2.69368 13.0241C3.09407 13.9893 3.68164 14.86 4.41081 15.5892C5.13997 16.3184 6.01074 16.9059 6.97591 17.3063C7.90527 17.6921 8.92741 17.9036 10 17.9036C11.0726 17.9036 12.0931 17.6904 13.0241 17.3063Z" fill="#E8B100"/>
</g>
</svg>
