<svg width="31" height="26" viewBox="0 0 31 26" fill="none" xmlns="http://www.w3.org/2000/svg">
<path id="Vector" fill-rule="evenodd" clip-rule="evenodd" d="M23.5364 7.19245L19.1467 7.15882V3.09023C19.1467 2.48498 18.9685 1.9369 18.678 1.54013C18.3899 1.13999 17.9919 0.894531 17.5525 0.894531H5.38452C4.94507 0.894531 4.54712 1.13999 4.25903 1.54013C3.97095 1.9369 3.79028 2.48498 3.79028 3.09023C3.79028 3.41975 3.98315 3.68539 4.22241 3.68539C4.46167 3.68539 4.65454 3.41975 4.65454 3.09023C4.65454 2.8145 4.73755 2.56232 4.86938 2.38075C5.00122 2.19917 5.18433 2.08485 5.38452 2.08485H17.5525C17.7527 2.08485 17.9358 2.19917 18.0676 2.38075C18.1995 2.56232 18.2825 2.8145 18.2825 3.09023V21.7217H15.8459C15.6067 21.7217 15.4138 21.9873 15.4138 22.3169C15.4138 22.6464 15.6067 22.912 15.8459 22.912H18.7146C18.9539 22.912 19.1467 22.6464 19.1467 22.3169V21.641H21.7542C21.9519 15.4473 28.4094 14.5933 29.0662 21.641H30.4846L30.0476 15.1783L25.3918 12.7237L23.5364 7.19245ZM1.13159 13.5173C0.772705 13.5173 0.484619 13.2483 0.484619 12.9187C0.484619 12.5892 0.775146 12.3202 1.13159 12.3202H6.96411C7.323 12.3202 7.61108 12.5892 7.61108 12.9187C7.61108 13.2483 7.32056 13.5173 6.96411 13.5173H1.13159ZM2.46704 10.296C2.19849 10.296 1.9812 10.0304 1.9812 9.70085C1.9812 9.37133 2.19849 9.10569 2.46704 9.10569H6.96655C7.23511 9.10569 7.45239 9.37133 7.45239 9.70085C7.45239 10.0304 7.23511 10.296 6.96655 10.296H2.46704ZM3.08472 7.07476C2.81616 7.07476 2.59888 6.80912 2.59888 6.4796C2.59888 6.15008 2.81616 5.88444 3.08472 5.88444H6.96411C7.23267 5.88444 7.44995 6.15008 7.44995 6.4796C7.44995 6.80912 7.23267 7.07476 6.96411 7.07476H3.08472ZM6.94458 21.7183C7.18384 21.7183 7.37671 21.984 7.37671 22.3135C7.37671 22.643 7.18384 22.9087 6.94458 22.9087H5.38452C4.94751 22.9087 4.54956 22.6464 4.25903 22.2328C3.97095 21.8192 3.79028 21.2543 3.79028 20.6558V16.2846C3.79028 15.9551 3.98315 15.6894 4.22241 15.6894C4.46167 15.6894 4.65454 15.9551 4.65454 16.2846V20.6558C4.65454 20.9416 4.73999 21.214 4.87915 21.4124C5.01099 21.6007 5.18921 21.7217 5.38208 21.7217H6.94458V21.7183ZM11.3391 17.8313C9.7229 17.8313 8.41187 19.637 8.41187 21.8629C8.41187 24.0889 9.7229 25.8945 11.3391 25.8945C12.9553 25.8945 14.2664 24.0889 14.2664 21.8629C14.2639 19.637 12.9553 17.8313 11.3391 17.8313ZM11.3391 20.3128C10.719 20.3128 10.2136 21.0055 10.2136 21.8629C10.2136 22.717 10.7166 23.413 11.3391 23.413C11.9592 23.413 12.4646 22.7204 12.4646 21.8629C12.4622 21.0055 11.9592 20.3128 11.3391 20.3128ZM25.4016 17.8313C23.7854 17.8313 22.4744 19.637 22.4744 21.8629C22.4744 24.0889 23.7854 25.8945 25.4016 25.8945C27.0178 25.8945 28.3289 24.0889 28.3289 21.8629C28.3289 19.637 27.0178 17.8313 25.4016 17.8313ZM25.4016 20.3128C24.7815 20.3128 24.2761 21.0055 24.2761 21.8629C24.2761 22.717 24.7791 23.413 25.4016 23.413C26.0242 23.413 26.5271 22.7204 26.5271 21.8629C26.5271 21.0055 26.0242 20.3128 25.4016 20.3128ZM22.406 8.90058L20.2258 8.86696V12.7304H23.8806L22.406 8.90058Z" fill="#4C4C6D"/>
</svg>
