<svg width="25" height="20" viewBox="0 0 25 20" fill="none" xmlns="http://www.w3.org/2000/svg">
<path id="Vector" fill-rule="evenodd" clip-rule="evenodd" d="M18.4382 6.57718H22.182V6.02645C21.596 3.90841 20.1066 3.92223 18.2652 3.93999C17.9621 3.94394 17.6874 3.94591 17.6711 3.94591H3.67665C3.35517 3.94591 3.09473 3.69325 3.09473 3.38137C3.09473 3.06948 3.35517 2.81682 3.67665 2.81682H17.6711C18.0842 2.81682 18.1716 2.81682 18.2551 2.81484C19.8299 2.79905 21.2053 2.78523 22.182 3.67943V3.42085C22.182 2.78918 21.9154 2.21674 21.4861 1.80024C21.0568 1.38373 20.4647 1.12515 19.8157 1.12515H3.52812C2.87702 1.12515 2.28697 1.38373 1.85765 1.80024C1.42834 2.21674 1.1618 2.79116 1.1618 3.42085V16.5752C1.1618 17.2069 1.42834 17.7793 1.85765 18.1958C2.28697 18.6123 2.87906 18.8709 3.52812 18.8709H19.8136C20.4647 18.8709 21.0548 18.6123 21.4841 18.1958C21.9134 17.7793 22.1799 17.2049 22.1799 16.5752V14.7079H18.4362C17.3069 14.7079 16.2794 14.2598 15.5367 13.5393C14.7941 12.8188 14.3322 11.822 14.3322 10.7264V10.5547C14.3322 9.45914 14.7941 8.4623 15.5367 7.74181C16.2814 7.02527 17.3069 6.57718 18.4382 6.57718ZM23.3438 6.5989C23.765 6.66009 24.1414 6.85353 24.4283 7.13383C24.7823 7.4773 25 7.95105 25 8.47217V12.7359C25 13.2807 24.7721 13.7742 24.4038 14.1315C24.121 14.4058 23.7527 14.6013 23.3438 14.6763V16.5772C23.3438 17.5188 22.947 18.3754 22.3081 18.9953C21.6692 19.6151 20.7862 20 19.8157 20H3.52812C2.55758 20 1.67453 19.6151 1.03565 18.9953C0.396761 18.3774 0 17.5207 0 16.5792V3.42282C0 2.48125 0.396761 1.62456 1.03565 1.00474C1.67453 0.384919 2.55758 0 3.52812 0H19.8136C20.7842 0 21.6672 0.384919 22.3061 1.00474C22.945 1.62456 23.3417 2.48125 23.3417 3.42282V6.5989H23.3438ZM17.9336 9.10186C18.7576 9.10186 19.425 9.74931 19.425 10.5488C19.425 11.3482 18.7576 11.9957 17.9336 11.9957C17.1095 11.9957 16.4422 11.3482 16.4422 10.5488C16.4422 9.74931 17.1095 9.10186 17.9336 9.10186Z" fill="#E8B100"/>
</svg>
